<svg width="290" height="263" xmlns="http://www.w3.org/2000/svg" stroke-miterlimit="2" stroke-linejoin="round" clip-rule="evenodd" fill-rule="evenodd">

 <g>
  <title>Layer 1</title>
  <path id="svg_1" d="m0,0l1024,0l0,263l-1024,0l0,-263z" fill="none"/>
  <path id="svg_2" fill="#fff" d="m161.98,6.62l13.02,0l113.74,197l0,0.01l-24.49,41.75l-99.54,-0.02l10.09,17.4l-4.39,0l-10.09,-17.4l-123.47,-0.01l-0.09,0l-6.32,-11.09l-7.84,0l-22.6,-39.14l0.02,-0.01l0,-0.01l29,-50.24l26.83,-15.48l44.39,-76.89l-8.93,-15.45l21.39,-37.04l45.46,0l3.82,6.62zm-22.51,61.39l-78.52,135.65l75.18,0l-8.69,-14.99l81.91,0.07l-69.88,-120.73z"/>
 </g>
</svg>