<?xml version="1.0" encoding="UTF-8" standalone="no"?>
<!DOCTYPE svg PUBLIC "-//W3C//DTD SVG 1.1//EN" "http://www.w3.org/Graphics/SVG/1.1/DTD/svg11.dtd">
<svg width="100%" height="100%" viewBox="0 0 46 46" version="1.1" xmlns="http://www.w3.org/2000/svg" xmlns:xlink="http://www.w3.org/1999/xlink" xml:space="preserve" xmlns:serif="http://www.serif.com/" style="fill-rule:evenodd;clip-rule:evenodd;stroke-linejoin:round;stroke-miterlimit:2;">
    <g id="Embleme_x5F_Q">
        <g>
            <g>
                <rect x="0" y="0" width="45.4" height="45.4" style="fill:url(#_Linear1);"/>
                <path d="M44,23C44,32.5 44.4,42.2 44.4,42.2C44.4,43.3 43.7,44 42.8,44L3.6,44C2.7,44 2.1,43.2 2,42.2C2,42.2 0.9,33.9 0.9,21.3C0.9,8.7 2,2.7 2,2.7C2.1,1.7 2.7,0.9 3.6,0.9L42.9,0.9C43.8,0.9 44.5,1.7 44.5,2.7C44.4,2.6 44,13.5 44,23Z" style="fill:url(#_Linear2);fill-rule:nonzero;"/>
                <g>
                    <g>
                        <path d="M35.3,12.3C32.5,13.9 31.6,14.1 28.6,15.9L28.7,15.6C30.3,13.9 31,13.1 32,11.6C29.2,11.8 25.1,12.1 22.2,12.7L22.4,12.4C25,11.1 30,9.8 32.5,9.5C31.9,8.6 26.9,5.9 25.7,5.4L25.8,5.1C29.6,5.5 34.6,7.3 36.7,8.6C37.6,8.3 38.6,8.3 40.3,8.1C40.3,8.1 40,9.1 38.2,10.4C38.7,11.6 37.6,18.5 36.6,20.3C36.6,17.5 36.3,13.9 35.3,12.3Z" style="fill:url(#_Linear3);fill-rule:nonzero;"/>
                        <path d="M14.8,36.8L14.9,36.5C13.4,35.9 11.9,35.5 10.7,34.3C11.1,33.2 11.5,32.4 12.2,31.4L12.3,31.1C11,31.3 9.9,31.8 8.8,32C7.9,30.5 7.6,28.4 7.1,26.4L7,26.7C6.8,29 6.7,30.6 7,32.4C6.1,32.7 5.3,32.7 4.5,33L4.4,33.3C5.6,34 6.5,34.6 7.9,35.2C8.6,36.7 9.4,37.8 10.6,39L10.7,38.7C10.5,37.8 10.2,37.1 10.3,36.1C11.8,36.5 13.1,36.8 14.8,36.8Z" style="fill:url(#_Linear4);fill-rule:nonzero;"/>
                        <path d="M18.9,14C18.9,14 18.3,15.1 17.8,16.5L17.7,16.5C21.2,17 24.5,18.4 25.3,18.9L25.2,19.2C21.6,18.6 19.7,18.6 18.3,18.8C17,18.9 16.7,19.1 16.7,19.1C15.9,20.8 15.5,23.6 15.3,24.6L15.2,24.9C14.5,23.3 13.6,20.1 13.6,20.1C11.8,21.1 7.6,25 7.6,25C9.9,20.4 12.3,18.3 12.3,18.3C11.5,17.5 9.4,17.1 7.8,17L7.9,16.7C8.9,16.4 10.9,16.3 12.2,16.2L14.7,16.2C16.1,15.1 18.2,14.1 18.9,14Z" style="fill:url(#_Linear5);fill-rule:nonzero;"/>
                        <path d="M23.3,33.9C22.6,34.9 21.9,35.7 21.1,36.6C19.9,36.9 18.5,36.8 17.4,36.8L17.3,37.1C18.1,37.5 18.9,37.8 19.8,38C19.1,38.6 18.2,39.1 17.5,39.6L17.4,39.9C18.8,39.6 20.7,39 22.1,38.1C22.8,38.1 23.5,38.1 24,38L24.1,37.7C24,37.4 23.7,37.2 23.6,36.7C24.9,35.7 25.8,34.8 26.9,33.7L27.1,33.4C26,34.1 24.7,35.2 23.5,35.8C23.4,35.1 23.4,34.6 23.3,33.9Z" style="fill:url(#_Linear6);fill-rule:nonzero;"/>
                    </g>
                    <g>
                        <path d="M35.4,12C32.6,13.6 31.7,13.8 28.7,15.6C30.5,13.7 31.1,12.9 32.2,11.2C29.4,11.3 25.3,11.7 22.4,12.3C24.9,10.9 30,9.4 32.6,9.1C32,8.3 27,5.6 25.8,5C29.7,5.3 34.6,6.8 36.9,8.2C37.8,7.9 38.8,7.9 40.5,7.7C40.1,8.4 40,8.9 38.4,10C38.9,11.2 37.8,18.1 36.8,19.9C36.7,17.1 36.5,13.5 35.4,12Z" style="fill:white;fill-rule:nonzero;"/>
                        <path d="M14.9,36.5C13.3,35.9 12.1,35.2 10.9,34C11.3,32.9 11.7,32.1 12.4,31.1C11.1,31.3 10.1,31.4 9,31.7C8.1,30.1 7.7,28.5 7.2,26.4C6.9,28.7 6.9,30.3 7.2,32.1C6.2,32.4 5.4,32.6 4.6,33C5.8,33.7 6.8,34.3 8.1,34.9C8.8,36.4 9.6,37.5 10.8,38.7C10.5,37.7 10.4,36.9 10.6,35.8C11.9,36.2 13.2,36.4 14.9,36.5Z" style="fill:white;fill-rule:nonzero;"/>
                        <path d="M19.1,13.8C18.6,14.5 18,15.7 17.9,16.2C22,16.8 25.4,18.9 25.4,18.9C21.8,18.3 19.9,18.3 18.5,18.5C17.2,18.6 16.9,18.8 16.9,18.8C15.9,20.9 15.3,24.6 15.3,24.6C14.6,23 13.7,19.8 13.7,19.8C11.9,20.8 7.7,24.7 7.7,24.7C10,20.1 12.4,18 12.4,18C11.6,17.2 9.5,16.8 7.9,16.7C8.7,16.4 10.8,16 12.4,15.9L14.9,15.9C16.2,14.8 18.4,13.9 19.1,13.8Z" style="fill:white;fill-rule:nonzero;"/>
                        <path d="M23.5,33.6C22.8,34.6 22.1,35.4 21.3,36.3C19.9,36.7 18.8,36.8 17.4,36.8C18.2,37.2 19,37.5 19.9,37.7C19,38.5 18.3,39 17.4,39.6C18.8,39.3 20.7,38.7 22.1,37.8C22.8,37.8 23.5,37.8 24,37.7C23.9,37.3 23.8,37 23.7,36.4C25,35.4 26,34.5 27,33.4C25.8,34.2 24.8,34.8 23.5,35.4C23.6,34.8 23.5,34.3 23.5,33.6Z" style="fill:white;fill-rule:nonzero;"/>
                    </g>
                </g>
            </g>
        </g>
    </g>
    <g id="immobilier">
    </g>
    <defs>
        <linearGradient id="_Linear1" x1="0" y1="0" x2="1" y2="0" gradientUnits="userSpaceOnUse" gradientTransform="matrix(2.93157e-15,47.8762,-47.8762,2.93157e-15,22.7,-1.0778)"><stop offset="0" style="stop-color:rgb(0,128,83);stop-opacity:1"/><stop offset="0.6" style="stop-color:rgb(127,203,174);stop-opacity:1"/><stop offset="1" style="stop-color:rgb(0,167,109);stop-opacity:1"/></linearGradient>
        <linearGradient id="_Linear2" x1="0" y1="0" x2="1" y2="0" gradientUnits="userSpaceOnUse" gradientTransform="matrix(3.29428e-15,53.7997,-53.7997,3.29428e-15,22.7,-11.2284)"><stop offset="0" style="stop-color:rgb(0,167,109);stop-opacity:1"/><stop offset="0.3" style="stop-color:rgb(127,203,174);stop-opacity:1"/><stop offset="0.55" style="stop-color:rgb(0,167,109);stop-opacity:1"/><stop offset="0.84" style="stop-color:rgb(0,128,83);stop-opacity:1"/><stop offset="0.87" style="stop-color:rgb(0,133,88);stop-opacity:1"/><stop offset="0.92" style="stop-color:rgb(0,146,100);stop-opacity:1"/><stop offset="0.99" style="stop-color:rgb(0,169,122);stop-opacity:1"/><stop offset="1" style="stop-color:rgb(0,173,125);stop-opacity:1"/></linearGradient>
        <linearGradient id="_Linear3" x1="0" y1="0" x2="1" y2="0" gradientUnits="userSpaceOnUse" gradientTransform="matrix(2.13183e-15,-34.8155,34.8155,2.13183e-15,31.25,39.601)"><stop offset="0" style="stop-color:rgb(0,179,135);stop-opacity:1"/><stop offset="1" style="stop-color:rgb(0,167,109);stop-opacity:1"/></linearGradient>
        <linearGradient id="_Linear4" x1="0" y1="0" x2="1" y2="0" gradientUnits="userSpaceOnUse" gradientTransform="matrix(2.13248e-15,-34.8261,34.8261,2.13248e-15,9.65,39.6025)"><stop offset="0" style="stop-color:rgb(0,179,135);stop-opacity:1"/><stop offset="1" style="stop-color:rgb(0,167,109);stop-opacity:1"/></linearGradient>
        <linearGradient id="_Linear5" x1="0" y1="0" x2="1" y2="0" gradientUnits="userSpaceOnUse" gradientTransform="matrix(2.13109e-15,-34.8033,34.8033,2.13109e-15,16.45,39.5943)"><stop offset="0" style="stop-color:rgb(0,179,135);stop-opacity:1"/><stop offset="1" style="stop-color:rgb(0,167,109);stop-opacity:1"/></linearGradient>
        <linearGradient id="_Linear6" x1="0" y1="0" x2="1" y2="0" gradientUnits="userSpaceOnUse" gradientTransform="matrix(2.13181e-15,-34.8151,34.8151,2.13181e-15,22.2,39.5999)"><stop offset="0" style="stop-color:rgb(0,179,135);stop-opacity:1"/><stop offset="1" style="stop-color:rgb(0,167,109);stop-opacity:1"/></linearGradient>
    </defs>
</svg>
