<svg xmlns="http://www.w3.org/2000/svg" id="Ebene_1" data-name="Ebene 1" viewBox="0 0 133.23 113.39"><defs><style>.cls-1{fill:#00aaeb}</style></defs><path d="M121.88 47a38.56 38.56 0 0 0-27.37-11.36h-.06A38.55 38.55 0 0 0 67.08 47c-.18.17-8.79 8.81-8.79 8.81l8.26 8.28s8.2-8.23 8.79-8.81a27.07 27.07 0 0 1 46.21 19.2 27.11 27.11 0 0 1-27.07 27.16 26.87 26.87 0 0 1-15.71-5.08L70.5 105a38.52 38.52 0 0 0 24 8.38h.06a38.82 38.82 0 0 0 38.72-38.85v-.06A38.81 38.81 0 0 0 121.88 47Z" class="cls-1"/><path d="M57.89 93.72a26.93 26.93 0 0 1-19.14 8 27.11 27.11 0 0 1-27.07-27.21 27.11 27.11 0 0 1 27.07-27.15 26.81 26.81 0 0 1 15.63 5L62.74 44a38.61 38.61 0 0 0-24-8.36h-.06A38.82 38.82 0 0 0 0 74.48a38.82 38.82 0 0 0 38.72 38.85h.06A38.65 38.65 0 0 0 66.15 102l8.66-8.81-8.26-8.28Z" style="fill:#ffb400"/><path d="M38.72 30.93h.06c.63 0 1.25 0 1.88.05a27.12 27.12 0 0 1 26-19.28A27.12 27.12 0 0 1 92.57 31c.62 0 1.25-.05 1.88-.05h.06a43.58 43.58 0 0 1 10.33 1.25A38.8 38.8 0 0 0 66.64 0a38.8 38.8 0 0 0-38.2 32.18 43.51 43.51 0 0 1 10.28-1.25Z" class="cls-1"/></svg>