<?xml version="1.0" encoding="UTF-8" standalone="no"?>
<!DOCTYPE svg PUBLIC "-//W3C//DTD SVG 1.1//EN" "http://www.w3.org/Graphics/SVG/1.1/DTD/svg11.dtd">
<svg width="100%" height="100%" viewBox="0 0 140 140" version="1.1" xmlns="http://www.w3.org/2000/svg" xmlns:xlink="http://www.w3.org/1999/xlink" xml:space="preserve" xmlns:serif="http://www.serif.com/" style="fill-rule:evenodd;clip-rule:evenodd;stroke-linejoin:round;stroke-miterlimit:2;">
    <g id="g10" transform="matrix(1.33333,0,0,-1.33333,0,172.821)">
        <g id="Horus_RGB">
            <g id="g101" serif:id="g10">
                <g id="g12">
                    <g id="Mask-group">
                        <g id="g14">
                            <g id="path22" transform="matrix(1,0,0,1,5.25,60.0033)">
                                <g id="g20">
                                    <path id="path221" serif:id="path22" d="M40.78,56.41L22.305,3.965C21.216,0.874 17.827,-0.75 14.736,0.339L3.965,4.133C0.874,5.222 -0.75,8.612 0.339,11.703L18.814,64.148C19.903,67.239 23.292,68.863 26.384,67.774L37.154,63.98C40.246,62.891 41.869,59.502 40.78,56.41" style="fill:rgb(0,65,105);fill-rule:nonzero;"/>
                                </g>
                            </g>
                            <g id="path26" transform="matrix(1,0,0,1,59.8623,27.326)">
                                <g id="g24">
                                    <path id="path261" serif:id="path26" d="M39.976,53.59L22.283,3.944C21.183,0.857 17.788,-0.754 14.701,0.346L3.944,4.179C0.857,5.28 -0.754,8.675 0.346,11.762L18.039,61.408C19.139,64.496 22.534,66.107 25.621,65.006L36.378,61.173C39.465,60.073 41.076,56.678 39.976,53.59" style="fill:rgb(93,138,255);fill-rule:nonzero;"/>
                                </g>
                            </g>
                            <g id="path30" transform="matrix(1,0,0,1,40.5607,64.656)">
                                <g id="g28">
                                    <path id="path301" serif:id="path30" d="M14.463,0.397L3.806,4.497C0.746,5.674 -0.78,9.108 0.397,12.168L4.498,22.825C5.675,25.884 9.109,27.41 12.168,26.233L22.825,22.133C25.885,20.956 27.41,17.522 26.234,14.463L22.133,3.805C20.956,0.746 17.522,-0.78 14.463,0.397" style="fill:rgb(0,165,186);fill-rule:nonzero;"/>
                                </g>
                            </g>
                            <g id="g32">
                            </g>
                            <g id="g36">
                            </g>
                            <g id="g40">
                            </g>
                            <g id="g44">
                            </g>
                            <g id="g48">
                            </g>
                            <g id="g52">
                            </g>
                            <g id="g56">
                            </g>
                            <g id="g60">
                            </g>
                            <g id="g64">
                            </g>
                            <g id="g68">
                            </g>
                            <g id="g72">
                            </g>
                            <g id="g76">
                            </g>
                            <g id="g80">
                            </g>
                        </g>
                    </g>
                </g>
            </g>
        </g>
    </g>
</svg>
